<svg width="25" height="25" viewBox="0 0 25 25" fill="none" xmlns="http://www.w3.org/2000/svg">
<g clip-path="url(#clip0_389_1898)">
<path d="M5.323 15.7655C5.323 17.1972 4.15542 18.3665 2.72358 18.3665C1.29175 18.3665 0.122803 17.1972 0.122803 15.7655C0.122803 14.3339 1.29214 13.1646 2.72378 13.1646H5.32319L5.323 15.7655ZM6.63335 15.7655C6.63335 14.3339 7.80268 13.1646 9.23433 13.1646C10.666 13.1646 11.8353 14.3337 11.8353 15.7655V22.2763C11.8353 23.7079 10.6662 24.8772 9.23433 24.8772C7.80268 24.8772 6.63335 23.7079 6.63335 22.2763V15.7655Z" fill="#DE1C59"/>
<path d="M9.23433 5.32324C7.80268 5.32324 6.63335 4.15566 6.63335 2.72383C6.63335 1.29199 7.80268 0.123047 9.23433 0.123047C10.666 0.123047 11.8353 1.29238 11.8353 2.72402V5.32344L9.23433 5.32324ZM9.23433 6.63359C10.666 6.63359 11.8353 7.80293 11.8353 9.23457C11.8353 10.6662 10.6662 11.8355 9.23433 11.8355H2.72358C1.29194 11.8355 0.122803 10.6664 0.122803 9.23457C0.122803 7.80293 1.29214 6.63359 2.72378 6.63359H9.23433Z" fill="#35C5F0"/>
<path d="M19.6769 9.23457C19.6769 7.80293 20.8444 6.63359 22.2763 6.63359C23.7081 6.63359 24.8772 7.80293 24.8772 9.23457C24.8772 10.6662 23.7079 11.8355 22.2763 11.8355H19.6769V9.23457ZM18.3665 9.23457C18.3665 10.6662 17.1972 11.8355 15.7655 11.8355C14.3339 11.8355 13.1646 10.6664 13.1646 9.23457V2.72383C13.1646 1.29219 14.3337 0.123047 15.7655 0.123047C17.1972 0.123047 18.3665 1.29238 18.3665 2.72402V9.23457Z" fill="#2EB57D"/>
<path d="M15.7655 19.6769C17.1972 19.6769 18.3665 20.8444 18.3665 22.2763C18.3665 23.7081 17.1972 24.8772 15.7655 24.8772C14.3339 24.8772 13.1646 23.7079 13.1646 22.2763V19.6769H15.7655ZM15.7655 18.3665C14.3339 18.3665 13.1646 17.1972 13.1646 15.7655C13.1646 14.3339 14.3337 13.1646 15.7655 13.1646H22.2763C23.7079 13.1646 24.8772 14.3337 24.8772 15.7655C24.8772 17.1972 23.7079 18.3665 22.2763 18.3665H15.7655Z" fill="#EBB02E"/>
</g>
<defs>
<clipPath id="clip0_389_1898">
<rect width="25" height="25" fill="white"/>
</clipPath>
</defs>
</svg>
