<svg width="25" height="25" viewBox="0 0 25 25" fill="none" xmlns="http://www.w3.org/2000/svg">
<path d="M15.1042 12.5053C15.1037 13.2675 14.9683 14.0236 14.7042 14.7386C14.0022 15.0074 13.2569 15.1451 12.5052 15.1449H12.4948C11.7435 15.1449 10.9986 15.0072 10.2969 14.7386C10.0321 14.0237 9.896 13.2676 9.89483 12.5053V12.4949C9.89483 11.7084 10.0375 10.9563 10.2948 10.2605C10.9971 9.99161 11.7428 9.85391 12.4948 9.85423H12.5032C13.2771 9.85423 14.0188 9.99902 14.7032 10.2605C14.9677 10.9751 15.1032 11.7313 15.1032 12.4949L15.1042 12.5053ZM22.7719 10.7365H16.6917L20.9907 6.36986C20.3171 5.40774 19.4873 4.56519 18.5355 3.87715L14.2355 8.24382V2.06777C13.6642 1.9708 13.0858 1.92168 12.5063 1.9209H12.4948C11.9046 1.92229 11.3278 1.97125 10.7646 2.06777V8.24382L6.46358 3.87715C5.98928 4.21951 5.54622 4.60007 5.13442 5.01882L5.13233 5.0209C4.72122 5.43826 4.34692 5.88826 4.00942 6.3709L8.30942 10.7365H2.22921C2.22921 10.7365 2.08337 11.8969 2.08337 12.4969V12.5042C2.08407 13.1042 2.13268 13.6907 2.22921 14.2636H8.30942L4.00837 18.6292C4.68363 19.5906 5.51364 20.4332 6.46462 21.123L10.7646 16.7574V22.9334C11.3356 23.03 11.9137 23.0787 12.4928 23.0792H12.5073C13.0865 23.0792 13.6629 23.0306 14.2365 22.9334V16.7563L18.5355 21.124C19.0098 20.7803 19.4532 20.3997 19.8657 19.9824H19.8667C20.2778 19.5629 20.6525 19.1126 20.9907 18.6313L16.6907 14.2636H22.773C22.8681 13.6914 22.916 13.1063 22.9167 12.5084V12.4928C22.9167 11.9032 22.8688 11.3181 22.773 10.7376" fill="black"/>
</svg>
