<svg width="28" height="25" viewBox="0 0 28 25" fill="none" xmlns="http://www.w3.org/2000/svg">
<g clip-path="url(#clip0_389_1891)">
<path d="M2.11684 21.4011L3.35169 23.5299C3.60828 23.9782 3.97709 24.3304 4.41011 24.5865C5.65035 23.0151 6.51368 21.8092 7.00011 20.9689C7.49376 20.1161 8.10046 18.7823 8.82022 16.9673C6.88034 16.7124 5.41034 16.585 4.41022 16.585C3.45027 16.585 1.9802 16.7124 0 16.9673C0 17.4635 0.128297 17.9596 0.384891 18.4079L2.11684 21.4011Z" fill="#0066DA"/>
<path d="M23.5901 24.5865C24.0232 24.3304 24.392 23.9782 24.6485 23.53L25.1617 22.6497L27.6154 18.4079C27.8672 17.9693 27.9999 17.4727 28.0002 16.9673C26.0085 16.7124 24.5411 16.585 23.5982 16.585C22.5847 16.585 21.1173 16.7124 19.196 16.9673C19.9073 18.7922 20.506 20.1261 20.9922 20.9689C21.4825 21.8192 22.3485 23.0251 23.5901 24.5865Z" fill="#EA4335"/>
<path d="M14.0001 8.00338C15.4351 6.27354 16.424 4.93966 16.9669 4.00175C17.4041 3.24651 17.8852 2.04065 18.4102 0.38417C17.9772 0.128057 17.4801 0 16.9669 0H11.0333C10.5201 0 10.0231 0.144105 9.58997 0.38417C10.2579 2.28395 10.8246 3.63599 11.2901 4.44028C11.8046 5.32915 12.7079 6.51685 14.0001 8.00338Z" fill="#00832D"/>
<path d="M19.1801 16.9673H8.82028L4.41028 24.5865C4.84318 24.8426 5.34029 24.9707 5.85348 24.9707H22.1469C22.66 24.9707 23.1573 24.8266 23.5902 24.5864L19.1801 16.9673Z" fill="#2684FC"/>
<path d="M14.0001 8.00338L9.59011 0.384277C9.15698 0.640391 8.78817 0.992465 8.53158 1.44072L0.384891 15.5266C0.133028 15.9652 0.000347977 16.4618 0 16.9672H8.82022L14.0001 8.00338Z" fill="#00AC47"/>
<path d="M23.5421 8.48373L19.4687 1.44072C19.2122 0.992465 18.8433 0.640391 18.4102 0.384277L14.0002 8.00349L19.18 16.9674H27.9843C27.9843 16.4711 27.856 15.975 27.5994 15.5267L23.5421 8.48373Z" fill="#FFBA00"/>
</g>
<defs>
<clipPath id="clip0_389_1891">
<rect width="28" height="25" fill="white"/>
</clipPath>
</defs>
</svg>
