<svg width="27" height="20" viewBox="0 0 27 20" fill="none" xmlns="http://www.w3.org/2000/svg">
<g clip-path="url(#clip0_389_1914)">
<path d="M6.13638 19.9015V9.65175L2.90113 6.74367L0 5.12988V18.0927C0 19.0935 0.825293 19.9015 1.84096 19.9015H6.13638Z" fill="#4285F4"/>
<path d="M20.8636 19.9016H25.1591C26.1778 19.9016 27 19.0906 27 18.0928V5.13013L23.714 6.97852L20.8636 9.65189V19.9016Z" fill="#34A853"/>
<path d="M6.13639 9.65189L5.69617 5.64702L6.13639 1.81396L13.5 7.24029L20.8636 1.81396L21.3561 5.44008L20.8636 9.65189L13.5 15.0782L6.13639 9.65189Z" fill="#EA4335"/>
<path d="M20.8636 1.81385V9.65178L27 5.12992V2.71821C27 0.481419 24.4013 -0.793711 22.5819 0.54774L20.8636 1.81385Z" fill="#FBBC04"/>
<path d="M0 5.12996L2.82224 7.20976L6.13638 9.65183V1.8139L4.41809 0.547787C2.59559 -0.793767 0 0.481466 0 2.71815V5.12996Z" fill="#C5221F"/>
</g>
<defs>
<clipPath id="clip0_389_1914">
<rect width="27" height="20" fill="white"/>
</clipPath>
</defs>
</svg>
